<svg width="1180" height="183" viewBox="0 0 1180 183" fill="none" xmlns="http://www.w3.org/2000/svg">
<path d="M613.895 85.3302C622.302 100.672 629.122 116.054 637.376 130.91C642.203 139.6 649.159 140.061 655.945 145.49C660.122 148.831 671.559 147.722 674.668 153.163C679.984 162.466 681.699 168.041 692.471 171.119C700.06 173.287 730.746 184.431 738.204 175.109C742.329 169.953 757.11 175.761 763.066 173.114C772.089 169.104 776.604 162.523 785.165 157.767C800.232 149.397 808.465 140.459 818.928 127.38C823.139 122.117 821.985 112.227 827.983 107.43C832.632 103.71 838.731 94.6724 840.26 89.3204C841.8 83.93 836.171 71.5723 832.74 68.1418C828.494 63.8959 815.225 71.2124 810.027 71.5181C791.754 72.593 775.504 74.8703 758.769 79.6519C741.937 84.4608 724.263 85.3302 706.436 85.3302C689.088 85.3302 674.853 74.2805 658.094 74.2805C649.085 74.2805 640.975 79.8054 631.851 79.8054C627.575 79.8054 625.605 77.2443 622.182 77.0429C618.637 76.8344 614.258 81.7028 611.746 79.1915C603.737 71.1825 647.116 60.4684 651.188 60.4684C667.56 60.4684 682.002 54.9436 698.149 54.9436C709.015 54.9436 740.664 49.1768 748.64 55.5574C756.292 61.6795 784.406 66.0127 794.68 63.0774C800.482 61.4198 834.998 49.1997 826.601 65.9932" stroke="black" stroke-width="5.04516" stroke-linecap="round"/>
<path d="M946.416 101.736C952.212 120.239 954.578 137.503 973.426 143.786C979.084 145.672 986.083 150.483 990 154.836C996.743 162.328 1004.43 170.796 1016.86 170.796C1039.78 170.796 1059.54 177.491 1081.77 176.321C1091.54 175.808 1106.36 168.466 1114.92 164.658C1123.35 160.912 1138.76 156.926 1144.08 150.078C1148.69 144.154 1176.34 99.6129 1175.7 98.9735" stroke="black" stroke-width="5.04516" stroke-linecap="round"/>
<path d="M949.177 98.9737C973.133 103.051 999.133 107.056 1022.38 101.89C1028.81 100.461 1036.98 96.5714 1043.1 96.2113C1063.83 94.9916 1082.95 110.023 1102.49 110.023C1117.31 110.023 1146.03 109.279 1159.12 102.35C1164.42 99.5471 1171.87 96.8557 1175.7 92.0676C1182.57 83.4812 1164.61 82.3776 1157.89 78.102C1148.75 72.2821 1142.46 70.7048 1131.5 71.3495C1127.15 71.6053 1127.13 75.6775 1121.83 72.7307C1118.42 70.8379 1111.9 68.587 1108.02 68.587C1087.28 68.587 1066.78 70.5976 1046.48 71.3495C1026.09 72.1044 1004.92 76.9297 986.316 82.2457C979.027 84.3283 969.952 90.2768 962.989 90.6864C959.511 90.891 938.85 95.1914 946.415 98.9737" stroke="black" stroke-width="5.04516" stroke-linecap="round"/>
<path d="M25.7252 168.89C17.8737 158.422 9.19344 146.758 5.9551 133.804C5.0184 130.058 1.74921 125.388 3.51435 121.662C5.35917 117.767 5.37478 114.744 6.50427 110.678C8.69118 102.805 7.05344 92.5172 7.05344 84.318C7.05344 77.6901 10.3941 68.3873 14.1927 62.9004C24.7052 47.7157 35.9689 32.9984 53.1837 25.2517C56.899 23.5798 61.8196 21.3906 65.7536 20.6753C69.4849 19.9969 72.5988 17.3193 76.493 17.3193C82.0192 17.3193 89.7985 16.0567 94.9207 13.7802C102.359 10.4744 104.783 6.33586 113.592 6.33586C119.508 6.33586 128.614 5.04001 133.912 7.98337C135.947 9.11425 140.947 9.63088 143.248 9.63088C146.458 9.63088 148.812 11.9901 151.485 13.4751C156.257 16.1261 163.018 17.0533 163.018 23.3601C163.018 25.2843 164.245 25.7505 165.703 26.167C168.945 27.0933 162.921 27.6136 161.919 28.0586C157.16 30.1739 150.413 31.2376 146.543 34.8927C140.941 40.1828 136.45 47.9806 130.312 52.4662C127.235 54.7142 123.5 57.9351 120.732 60.7037C118.083 63.3527 115.156 65.3286 112.494 67.8429C109.872 70.3195 106.333 71.8072 103.707 74.433C100.74 77.4005 97.2303 81.578 93.8223 83.7689C85.6285 89.0363 81.1947 98.0638 75.0895 105.186C69.3303 111.906 65.6767 120.043 61.4213 127.702C57.9083 134.026 54.0216 138.516 49.3395 144.239C44.3373 150.352 35.4343 156.644 31.461 163.399C30.6286 164.814 28.7386 169.058 27.4338 169.928C25.3626 171.308 31.2973 166.642 32.5593 164.497C36.7975 157.292 47.219 152.888 53.1837 146.923C58.7803 141.327 64.1083 135.999 69.6588 130.448C74.2316 125.876 78.7834 121.324 83.3881 116.719C85.7826 114.325 92.2668 108.844 92.724 105.186C92.9019 103.763 95.5554 99.1821 96.6292 98.1083C105.106 89.6316 113.312 81.3021 122.928 73.8228C127.732 70.0868 135.35 62.4019 138.61 56.8595C140.187 54.1787 146.799 47.3543 149.838 46.9745C153.838 46.4744 157.008 40.6885 159.479 37.9437C161.224 36.0043 167.146 28.0249 163.018 29.401" stroke="black" stroke-width="5.04516" stroke-linecap="round"/>
<path d="M80.3386 158.211C75.821 162.298 61.2865 171.79 73.3712 175.242C80.3933 177.249 87.1088 177.371 94.3703 177.371C113.24 177.371 132.111 177.371 150.981 177.371C158.088 177.371 219.687 186.044 219.687 172.92C219.687 165.645 218.155 161.119 210.591 158.598C186.713 150.638 158.043 152.769 133.562 150.566C114.252 148.828 93.7346 151.513 76.8549 159.953" stroke="black" stroke-width="5.04516" stroke-linecap="round"/>
<path d="M127.369 175.63C129.236 153.693 128.575 132.894 127.369 111.181C127.036 105.179 125.627 99.2292 125.627 92.8912C125.627 88.794 124.968 79.6982 123.789 75.5694C123.32 73.9306 111.631 71.2169 109.95 71.118C105.474 70.8547 101.49 64.8902 101.241 60.6668C101.021 56.9168 101.997 49.7481 103.08 45.9578C104.906 39.5649 111.692 45.0812 111.692 49.3447C111.692 62.4704 125.627 66.5564 125.627 51.0866C125.627 40.7333 123.808 31.7518 116.531 24.4748C113.453 21.3968 110.813 16.0427 113.434 12.7656C117.04 8.25804 124.886 22.0575 125.53 24.9587C126.69 30.1768 129.991 34.7781 132.208 39.7645C133.841 43.4401 138.262 48.4738 134.336 48.4738" stroke="black" stroke-width="5.04516" stroke-linecap="round"/>
<path d="M134.336 44.99C134.336 35.3001 134.967 30.3208 130.853 23.12C129.262 20.3366 127.553 18.5043 127.369 15.3784C127.16 11.8361 123.802 1.13478 133.465 3.28215C143.142 5.43245 141.797 32.3228 147.884 38.4097C154.776 45.3011 150.908 30.1349 149.626 27.5714C148.007 24.3333 141.855 11.8617 147.497 10.2496C159.242 6.89397 161.199 32.7094 163.561 38.0226C168 48.01 162.169 63.135 154.368 69.3761C143.236 78.2816 148.271 87.8181 148.271 100.73C148.271 113.798 150.013 128.038 150.013 141.663C150.013 147.943 148.271 154.177 148.271 160.824C148.271 163.964 146.529 180.562 146.529 172.146" stroke="black" stroke-width="5.04516" stroke-linecap="round"/>
<path d="M81.3793 166.592C79.5707 167.823 74.178 171.509 75.7814 170.02C77.4047 168.513 79.1724 167.174 80.7718 165.637C81.1011 165.321 84.8038 161.412 83.6358 163.164C82.8185 164.39 77.8855 171.377 79.1228 170.758C80.5606 170.039 87.4768 163.646 87.2809 162.079C87.2191 161.584 78.0998 169.369 77.2134 169.369C75.1492 169.369 82.0792 163.249 80.1209 163.902C78.18 164.549 76.6606 165.656 74.9569 166.766C74.0257 167.372 71.96 170.411 70.9213 170.411C68.4358 170.411 78.5231 164.237 76.2154 165.16C74.6897 165.77 72.9731 169.836 72.1797 171.279C71.9586 171.681 76.6782 168.346 77.6474 167.503C79.3046 166.062 80.9282 164.602 82.551 163.12C83.6626 162.106 85.0291 158.85 85.8923 160.083C87.1798 161.922 79.0382 174.224 86.4131 164.856C87.7968 163.098 88.7083 160.825 90.2752 159.258C91.5514 157.982 88.5322 162.425 87.8017 164.075C87.5931 164.546 84.6987 170.324 85.7187 170.324C86.7878 170.324 90.0501 165.734 90.7525 164.856C95.8628 158.468 92.056 163.987 90.0148 167.764C89.5692 168.588 86.0392 173.843 87.0206 172.494C88.8076 170.037 90.6535 167.472 91.8808 164.683C95.1122 157.339 86.3242 167.115 84.5471 168.892C80.2807 173.158 85.4756 167.07 86.4131 165.507C88.3531 162.274 81.7715 171.463 79.2096 174.229C77.4248 176.157 81.053 173.867 81.5095 173.448C84.7411 170.486 87.3729 166.966 90.4053 163.815C91.5015 162.676 94.2136 158.791 93.0958 159.909C91.1861 161.819 89.5371 165.419 88.062 167.72C87.7916 168.142 83.8353 174.2 85.632 173.275C88.921 171.58 91.0821 167.143 93.0958 164.249C93.8686 163.138 101.862 151.385 98.2163 157.74C96.1329 161.371 93.669 164.756 91.6204 168.415C89.4239 172.337 93.7431 167.434 94.4844 166.592C96.6483 164.135 98.1502 161.408 100.126 158.868C101.935 156.541 100.686 158.085 99.9521 159.475C97.8802 163.397 95.2441 166.907 93.1392 170.801C92.9441 171.162 89.7734 176.491 91.7072 174.056C95.3035 169.527 98.6323 164.786 101.992 160.083C104.912 155.995 97.0948 168.863 94.3976 173.101C91.122 178.249 101.999 163.543 105.463 158.521C110.261 151.563 104.724 161.253 103.597 163.815C103.448 164.153 101.004 167.97 102.556 166.418C104.809 164.166 106.166 160.895 107.763 158.173C108.511 156.899 109.798 153.766 108.24 157.002C106.663 160.278 104.547 163.36 103.25 166.766C101.955 170.165 105.99 163.456 106.374 162.773C107.441 160.877 108.827 158.419 110.28 156.785C113.119 153.591 105.635 164.019 104.031 167.981C102.889 170.803 105.129 167.282 105.593 166.592C107.445 163.841 109.032 161.03 110.627 158.13C110.843 157.738 112.813 155.757 111.842 156.785C109.556 159.205 107.834 162.288 105.984 165.03C104.449 167.303 101.647 170.314 101.037 173.058C100.544 175.278 103.772 169.396 104.812 167.373C106.394 164.297 108.372 161.389 109.759 158.217C110.007 157.65 105.721 162.342 104.986 163.468C102.789 166.833 95.8534 177.865 102.946 169.196C105.907 165.577 108.7 161.706 110.888 157.566C112.79 153.965 111.516 156.494 110.237 158.477C108.163 161.691 105.972 165.102 104.378 168.588C103.459 170.6 106.981 166.897 107.242 166.462C109.405 162.857 112.216 159.728 114.446 156.177C116.021 153.668 113.199 158.541 112.97 158.911C110.67 162.636 108.572 166.573 106.461 170.411C106.02 171.213 103.542 177.379 105.767 173.882C108.008 170.361 110.031 166.706 112.233 163.164C113.299 161.449 117.42 158 115.401 158C113.775 158 109.322 169.577 108.718 171.105C107.45 174.313 109.742 171.001 110.323 170.02C112.089 167.041 114.35 164.114 115.748 160.951C116.508 159.231 116.674 159.083 115.574 160.69C113.525 163.685 112.581 167.196 111.061 170.454C106.932 179.302 115.568 165.645 116.919 163.511C117.782 162.148 119.467 157.697 119.306 159.302C119.035 162.017 116.775 165.104 115.401 167.33C115.255 167.565 112.724 172.963 113.925 172.146C116.741 170.232 117.851 166.057 119.566 163.294C123.691 156.649 119.911 164.366 118.872 167.373C118.257 169.155 115.256 173.411 117.006 172.711C118.642 172.056 119.699 168.372 120.434 166.939C123.361 161.241 121.975 165.962 120.868 169.282C118.9 175.188 122.995 167.46 123.125 167.46C125.014 167.46 120.473 171.897 121.996 173.014C122.934 173.702 122.544 174.477 122.821 173.231C122.99 172.471 124.036 171.485 123.385 170.671C121.357 168.136 121.215 164.444 121.215 161.124C121.215 159.564 120.804 158.318 120.391 156.872C119.714 154.503 119.062 155.843 120.044 157.609C122.197 161.486 124.517 152.311 122.778 154.485C120.224 157.677 115.061 156.519 112.45 158.607C111.483 159.381 103.553 163.468 104.031 163.468" stroke="black" stroke-width="5.04516" stroke-linecap="round"/>
<path d="M89.1897 163.467C95.0887 159.508 123.558 143.939 123.558 160.343" stroke="black" stroke-width="5.04516" stroke-linecap="round"/>
<path d="M152.459 155.657C152.439 157.41 150.046 168.425 153.283 163.771C154.672 161.774 156.076 157.47 158.23 156.177C160.886 154.584 156.524 162.14 155.41 165.03C154.795 166.623 151.928 173.728 154.976 168.762C156.606 166.105 159.009 163.571 160.27 160.734C161.371 158.256 158.609 166.476 158.317 167.33C157.723 169.067 155.821 171.857 155.93 173.709C156.026 175.343 158.424 171.537 159.358 170.194C161.26 167.461 165.834 158.585 164.522 161.645C163.322 164.446 162.354 167.39 161.051 170.15C159.299 173.86 162.952 168.627 163.741 167.807C166.025 165.434 172.069 157.837 170.771 160.864C169.653 163.473 168.884 166.261 167.734 168.892C166.178 172.448 171.009 167.58 171.552 167.026C172.002 166.568 176.408 161.462 176.846 162.339C177.657 163.96 175.972 166.46 175.892 168.154C175.875 168.515 182.587 161.804 183.529 160.69C186.977 156.616 185.528 159.671 184.484 162.687C184.198 163.511 181.757 169.232 184.527 166.462C187.19 163.799 189.178 160.423 191.861 157.74C192.02 157.58 190.31 161.912 189.951 162.86C189.215 164.81 188.365 168.73 190.906 165.464C192.415 163.524 196.08 161.404 196.938 159.258C197.667 157.435 195.598 162.969 194.638 164.683C193.994 165.833 189.591 172.343 193.553 169.586C196.622 167.451 203.906 158.934 201.885 162.079C199.765 165.376 197.5 168.852 195.246 172.06C192.677 175.715 195.722 172.832 197.155 171.452C203.554 165.29 197.222 176.539 199.411 175.444C201.997 174.151 204.159 171.131 206.181 169.109C208.711 166.579 207.56 169.187 206.962 171.279C206.222 173.869 204.97 175.007 207.917 172.06C208.6 171.377 211.867 167.328 211.041 168.154" stroke="black" stroke-width="5.04516" stroke-linecap="round"/>
<path d="M210.26 171.279C210.501 172.038 211.879 179.505 213.819 177.918C215.409 176.617 216.552 175.24 217.724 173.535C219.636 170.755 216.562 176.553 216.075 177.527C214.548 180.582 220.45 174.03 218.071 172.841" stroke="black" stroke-width="5.04516" stroke-linecap="round"/>
<path d="M217.29 171.278C206.702 171.51 197.36 173.301 187.609 177.093C185.895 177.76 182.618 178.065 181.186 176.92C178.355 174.654 174.106 174.843 171.206 175.184C167.22 175.653 163.575 177.954 159.489 176.139C157.692 175.34 151.835 175.67 151.678 172.841C151.488 169.414 152.614 164.249 157.146 164.249C160.714 164.249 160.953 169.319 163.785 170.844C167.113 172.636 172.352 169.651 174.764 167.373C177.024 165.238 169.782 168.118 168.906 168.501C167.651 169.05 167.349 169.155 169.036 168.848C173.044 168.12 176.855 166.285 180.839 165.377C181.162 165.303 186.415 164.162 186.48 164.422C186.771 165.585 180.883 168.495 180.188 168.892C178.607 169.795 166.544 175.291 173.896 172.841C179.137 171.094 193.927 163.858 189.431 167.069C184.858 170.335 177.95 171.13 173.896 175.184C173.255 175.825 178.191 173.777 178.583 173.622C182.868 171.927 187.39 170.91 191.731 169.369C198.697 166.897 188.227 172.091 187.956 173.448C187.832 174.068 197.337 169.16 198.154 168.979C200.284 168.505 195.767 171.856 195.767 172.667C195.767 175.93 213.786 163.276 200.887 172.233C196.502 175.279 199.723 174.403 203.665 174.403C205.655 174.403 206.758 173.622 208.698 173.622C210.662 173.622 218.651 170.987 215.555 167.546C214.007 165.827 208.434 164.249 206.355 164.249C204.093 164.249 196.587 162.974 198.371 165.203C198.951 165.928 198.007 168.848 199.759 168.848C200.398 168.848 202.863 165.79 202.276 165.203C201.128 164.055 196.753 166.925 198.978 167.33C201.016 167.7 205.838 167.154 206.963 165.03C208.209 162.675 200.958 159.91 204.966 161.298C206.711 161.901 208.814 163.467 210.651 163.467C212.472 163.467 213.016 162.802 211.042 162.686C206.121 162.397 201.251 161.905 196.201 161.905C192.705 161.905 189.584 159.562 186.047 159.562C179.279 159.562 172.723 159.927 166.519 159.562C164.247 159.428 161.17 157.383 158.708 157.219C154.494 156.938 167.155 157.219 171.379 157.219C179.327 157.219 186.596 158.478 194.465 158.781C196.563 158.862 198.318 160.343 200.497 160.343C202.67 160.343 205.4 160.351 207.136 161.905C211.507 165.816 202.415 170.497 198.891 170.497C190.965 170.497 183.038 170.497 175.111 170.497" stroke="black" stroke-width="5.04516" stroke-linecap="round"/>
<path d="M136.837 138.472C136.869 138.939 138.566 156.651 139.571 154.441C140.169 153.126 140.977 142.893 139.788 149.581C139.332 152.141 138.399 154.876 138.399 157.479C138.399 159.779 138.399 152.879 138.399 150.579C138.399 149.082 138.874 145.544 137.618 144.287C136.001 142.671 137.844 148.893 137.444 151.143C137.334 151.763 136.365 157.653 136.099 155.526C135.669 152.085 135.275 148.63 135.275 145.155C135.275 141.08 134.493 152.266 134.493 153.921C134.493 156.874 136.056 148.152 136.056 145.198C136.056 142.956 136.056 149.683 136.056 151.925C136.056 155.079 137.081 158.507 138.399 153.313C139.086 150.606 139.18 148.003 139.18 145.242C139.18 143.56 139.75 148.559 139.918 150.232C139.986 150.911 139.912 154.924 139.961 154.094C140.084 152.008 141.434 150.151 141.523 148.019C141.548 147.423 141.523 151.597 141.523 152.489C141.523 156.058 141.943 155.239 142.695 152.532C143.298 150.362 143.175 147.918 143.086 145.676C143.02 144.045 142.277 148.461 142.304 149.234C142.443 153.124 143.695 156.64 142.348 150.579C142.279 150.272 141.392 147.362 142.131 148.019C143.196 148.966 143.086 152.185 143.086 152.185C143.086 152.185 143.086 144.953 143.086 146.761C143.086 148.294 143.086 149.827 143.086 151.36C143.086 153.247 144.303 146.41 142.304 149.408" stroke="white" stroke-width="5.04516" stroke-linecap="round"/>
<path d="M136.837 143.159C136.02 136.184 132.1 115.581 134.32 122.243C135.794 126.664 136.428 131.531 137.011 136.129C137.393 139.14 137.618 143.485 137.618 137.865C137.618 134.307 137.618 130.748 137.618 127.19C137.618 124.599 139.439 130.85 139.571 131.486C139.985 133.472 139.962 139.59 139.962 137.561C139.962 134.639 139.962 131.717 139.962 128.795C139.962 126.44 140.743 130.595 140.743 131.442" stroke="white" stroke-width="5.04516" stroke-linecap="round"/>
<path d="M138.399 121.288C137.795 119.816 133.57 104.82 134.667 112.609C135.558 118.937 135.758 125.084 136.229 131.442C136.342 132.966 135.85 140.262 137.01 141.423C137.346 141.758 137.514 134.567 137.444 133.872C136.867 128.104 135.83 122.354 135.101 116.602C135.023 115.986 133.592 110.939 135.448 112.87C140.478 118.101 140.742 130.447 140.742 137.344C140.742 144.278 139.469 123.529 139.18 116.602C138.915 110.244 142.304 129.071 142.304 135.435C142.304 138.416 142.408 136.737 142.131 134.827C141.45 130.139 140.384 125.56 139.788 120.854C139.532 118.84 138.085 113.194 139.354 114.779C141.363 117.29 141.345 125.208 141.48 128.318C141.596 130.977 141.523 138.964 141.523 136.303C141.523 131.49 141.208 126.813 140.308 122.069C139.427 117.423 138.185 112.806 137.661 108.096C137.318 105.01 138.3 109.37 138.399 110.136C139.49 118.592 140.742 144.135 140.742 135.608C140.742 125.943 137.882 116.675 135.708 107.359C135.048 104.529 135.33 103.91 136.49 106.968C138.72 112.848 138.985 118.514 139.571 124.716C139.742 126.536 140.742 133.212 140.742 133.178C140.742 127.598 139.541 122.069 138.789 116.558C138.129 111.712 136.837 106.751 136.837 101.847C136.837 98.942 138.442 102.492 138.789 103.496C141.597 111.607 141.523 137.682 141.523 129.099" stroke="white" stroke-width="5.04516" stroke-linecap="round"/>
<path d="M136.837 146.283C137.846 150.823 139.662 155.938 138.79 160.647C138.787 160.665 138.35 163.851 138.399 162.513C138.585 157.501 139.962 152.643 139.962 147.585C139.962 144.739 139.42 153.251 139.224 156.09C139.08 158.176 138.469 166.376 139.354 159.736C139.441 159.086 139.569 150.21 139.007 150.71C136.778 152.69 137.977 159.123 137.228 161.819C136.031 166.126 136.837 160.789 136.837 158.824C136.837 157.202 136.055 150.582 135.882 151.143C134.628 155.22 134.521 159.698 133.886 163.901C133.111 169.041 134.314 162.713 134.45 161.081C134.517 160.276 135.22 153.257 134.494 156.524C133.666 160.25 132.932 163.984 132.932 167.807C132.932 172.448 135.251 159.625 135.665 160.039C135.816 160.19 135.471 171.589 137.445 164.683C138.155 162.197 138.679 159.576 139.788 157.219C139.988 156.793 139.962 162.223 139.962 163.424C139.962 164.904 140.128 168.204 141.133 164.986C142.157 161.709 141.524 157.686 141.524 154.268C141.524 150.573 138.205 168.297 140.352 165.29C142.83 161.821 140.111 154.257 139.962 150.362C139.821 146.718 138.19 142.453 139.571 138.863C140.126 137.421 140.555 128.773 140.743 135.348C140.807 137.59 141.524 142.031 141.524 142.031C141.524 142.031 141.524 136.303 141.524 133.439C141.524 125.442 142.81 139.896 141.524 139.253" stroke="white" stroke-width="5.04516" stroke-linecap="round"/>
<path d="M129.807 63.4868C129.807 62.2768 129.807 54.4641 129.807 54.5475C129.807 56.1097 129.807 57.6719 129.807 59.2341C129.807 59.9708 130.119 66.0734 130.415 65.4829C131.168 63.9754 131.441 61.7249 132.107 60.0586C133.042 57.7212 132.932 65.0484 132.932 67.5659C132.932 68.6082 134.115 77.6463 134.45 74.292C134.797 70.8233 134.494 63.8339 134.494 63.8339C134.494 63.8339 136.056 92.8979 136.056 85.6179C136.056 80.767 136.216 75.7629 134.928 71.0374C134.285 68.6817 136.301 75.7393 136.663 78.1541C136.882 79.6105 137.531 81.338 137.531 82.7973C137.531 84.6153 136.598 79.2819 136.056 77.5466C135.7 76.4062 133.865 68.5917 134.32 71.0374C135.448 77.0986 135.275 83.8432 135.275 90.0008C135.275 91.6163 135.074 93.3847 135.275 94.9911C135.489 96.7044 136.028 91.597 136.056 89.8706C136.104 86.9519 136.837 78.2293 136.837 81.1483C136.837 85.455 136.116 89.6645 136.056 93.9497C136.041 95.0126 136.458 103.453 136.013 98.5495C135.53 93.2383 133.86 87.8807 133.713 82.5803C133.594 78.3043 133.713 87.6452 133.713 88.5254C133.713 89.6829 133.219 102.195 135.101 102.195C137.142 102.195 137.59 90.2898 137.662 88.9593C137.744 87.4333 138.399 79.6233 138.399 85.0972C138.399 89.9888 139.18 94.7811 139.18 99.6777C139.18 103.038 139.974 95.6023 139.961 94.7308C139.942 93.3389 138.955 83.5856 139.224 86.2689C139.708 91.1111 139.545 96.2425 140.569 100.98C141.036 103.14 141.124 104.718 140.352 101.63C139.103 96.6353 138.514 90.6739 138.399 85.5312C138.295 80.8348 139.792 91.2512 139.918 92.8214C140.117 95.3078 140.276 100.902 139.354 95.1647C138.19 87.9208 136.056 80.7096 136.056 73.3373C136.056 72.5442 136.076 66.6308 137.618 68.1734" stroke="white" stroke-width="5.04516" stroke-linecap="round"/>
<path d="M144.648 58.019C144.09 59.0568 138.538 68.4369 138.573 68.3469C139.153 66.8617 140.122 65.5636 140.743 64.0942C141.626 62.0025 142.784 60.0646 143.693 58.019C143.84 57.6887 139.105 65.1244 137.618 66.6111C134.343 69.8864 141.622 58.2565 143.693 54.1135C144.59 52.3208 143.072 52.8315 142.305 53.94C140.984 55.8475 139.549 57.9008 138.443 59.9284C137.056 62.4713 141.958 55.5023 142.652 54.1135C144.276 50.8648 136.95 58.6095 136.099 59.885C134.121 62.8533 140.737 54.4328 142.652 51.4231C144.038 49.2448 137.578 56.1798 138.573 57.0643C139.347 57.7521 146.991 50.5399 146.991 52.5513C146.991 53.5349 142.239 62.5162 144.822 61.7509C147.265 61.0271 149.67 59.6123 151.504 57.8454C151.932 57.434 154.519 54.8864 153.067 56.804C151.161 59.32 148.65 61.4638 147.165 64.2678C145.807 66.833 145.465 68.4818 147.816 65.3961C148.698 64.2378 156.277 53.9008 152.806 56.1097C149.897 57.9612 146.83 61.5064 145.429 64.6584C143.621 68.7274 141.524 71.5638 141.524 75.9843C141.524 77.8337 141.301 79.8049 140.569 81.452C139.903 82.9502 139.935 87.3805 139.007 88.3083C137.915 89.4 132.373 77.5691 132.107 76.3749C131.652 74.3271 130.342 72.1921 129.764 70.1695C129.528 69.3433 127.208 66.442 129.373 68.6073C130.185 69.4188 132.151 72.8603 132.151 73.9448C132.151 75.4893 130.001 71.7234 128.853 70.6902C127.326 69.3161 125.239 68.5582 123.732 67.2186C123.723 67.2107 126.53 68.2862 127.464 68.7808C130.931 70.6165 132.142 74.9691 132.975 78.7182C133.805 82.4511 132.717 80.2899 132.194 77.9371C131.805 76.1882 130.094 73.2453 128.636 72.0788C126.752 70.5717 125.123 65.0489 122.777 65.0489" stroke="white" stroke-width="5.04516" stroke-linecap="round"/>
<path d="M107.54 63.2321C108.236 64.2414 108.679 64.7475 109.695 65.1992C110.042 65.3533 110.429 65.3542 110.773 65.5071C111.357 65.7666 112.238 65.7215 112.851 65.8578C113.625 66.0297 114.397 65.9959 115.161 66.1657C115.531 66.2479 116.955 67.1872 117.085 66.9269" stroke="white" stroke-width="5.04516" stroke-linecap="round"/>
<path d="M108.002 64.1556C109.631 65.1777 111.43 66.311 113.425 66.311C114.406 66.311 115.351 66.4649 116.316 66.4649" stroke="white" stroke-width="5.04516" stroke-linecap="round"/>
<path d="M115.546 65.8491C114.346 64.6728 112.983 63.6985 111.765 62.6161C111.15 62.0689 111.878 62.4897 112.167 62.7786C112.986 63.5973 114.066 64.8783 115.084 65.3872" stroke="white" stroke-width="5.04516" stroke-linecap="round"/>
<path d="M113.083 64.1556C115.926 64.872 119.728 66.1372 122.696 65.1478C123.601 64.8462 124.506 64.4906 125.399 64.1556" stroke="white" stroke-width="5.04516" stroke-linecap="round"/>
<path d="M129.094 57.8438C129.249 56.7087 129.555 55.5386 129.555 54.3884C129.555 54.0875 129.589 53.625 129.786 53.3877C129.988 53.1461 130.171 52.4014 130.171 52.0706C130.171 51.1594 130.633 48.4653 130.633 49.3764" stroke="white" stroke-width="5.04516" stroke-linecap="round"/>
<path d="M130.787 49.0684C131.484 51.4204 132.211 53.7645 132.908 56.1159C132.964 56.3056 133.086 56.5751 133.096 56.7659C133.136 57.4746 133.25 56.3868 133.25 56.1501" stroke="white" stroke-width="5.04516" stroke-linecap="round"/>
<path d="M132.326 51.5316C133.599 52.7185 134.945 53.8422 136.175 55.0725C136.479 55.376 136.632 55.5988 136.791 55.9962" stroke="white" stroke-width="5.04516" stroke-linecap="round"/>
<path d="M135.714 53.5331C134.436 52.317 133.165 51.151 132.318 49.5987C132.221 49.4198 131.974 48.5168 132.173 48.9145" stroke="white" stroke-width="5.04516" stroke-linecap="round"/>
<path d="M130.479 46.9131C131.975 48.2435 133.433 49.6201 134.635 51.2237" stroke="white" stroke-width="5.04516" stroke-linecap="round"/>
<path d="M139.409 38.9077C139.217 41.6581 139.162 44.3502 139.101 47.1014C139.066 48.6858 138.348 49.9404 137.869 51.3778" stroke="white" stroke-width="5.04516" stroke-linecap="round"/>
<path d="M139.1 49.3764C139.551 47.3868 140.178 45.3446 140.178 43.2867C140.178 42.9085 140.024 42.5721 140.024 42.2176C140.024 41.7016 140.024 41.1855 140.024 40.6695C140.024 39.5691 139.87 38.5142 139.87 37.4451C139.87 35.9682 140.995 38.8982 141.136 39.2155C141.331 39.6555 141.252 40.4051 141.563 40.7551C141.758 40.9745 142.498 41.9867 142.487 41.9867" stroke="white" stroke-width="5.04516" stroke-linecap="round"/>
<path d="M142.949 42.1405C142.375 40.1314 139.672 34.462 140.332 36.4443" stroke="white" stroke-width="5.04516" stroke-linecap="round"/>
<path d="M140.794 37.676C141.657 38.7115 142.669 39.7184 143.334 40.9005C143.537 41.2604 143.781 41.4986 144.095 41.7557C144.29 41.9148 144.919 42.3104 144.643 42.4485" stroke="white" stroke-width="5.04516" stroke-linecap="round"/>
<path d="M140.948 35.059C141.284 36.0266 141.549 36.9755 141.718 37.984" stroke="white" stroke-width="5.04516" stroke-linecap="round"/>
<path d="M142.642 47.529C143.491 46.4175 144.111 45.8127 144.557 47.375C144.74 48.0149 144.966 48.7606 145.293 49.3422C145.669 50.011 146.355 50.1962 146.336 49.2225C146.315 48.0653 145.204 47.0132 144.13 46.7935C143.668 46.699 143.914 46.8258 144.215 46.9132C145.016 47.1457 145.826 47.3672 146.644 47.529C146.851 47.57 148.896 47.8331 148.269 47.6487C147.42 47.3989 146.81 47.2545 145.909 47.2211C145.456 47.2043 146.172 46.9323 146.251 46.9132C146.995 46.7325 147.766 46.7592 148.526 46.7592C148.995 46.7592 150.628 46.5967 149.227 46.4855C148.541 46.4311 147.822 46.811 147.294 47.2211C146.786 47.6162 147.311 47.4676 147.602 47.3408C148.286 47.043 148.973 46.6675 149.621 46.2974C149.812 46.1884 150.226 45.75 150.459 45.75C150.459 45.75 149.337 48.2899 149.227 48.4869C148.84 49.1835 147.887 50.7279 149.381 49.6501C149.541 49.5351 151.09 47.8866 151.229 48.0251C151.353 48.1491 149.92 50.1871 149.792 50.3857C148.989 51.6247 150.644 49.9954 150.921 49.7185C151.271 49.368 151.879 48.9904 151.879 48.4527" stroke="white" stroke-width="5.04516" stroke-linecap="round"/>
<path d="M148.029 45.3737C149.999 45.364 153.316 45.7823 155.231 44.604C155.604 44.3743 156.154 44.212 156.343 43.8342" stroke="white" stroke-width="5.04516" stroke-linecap="round"/>
<path d="M156.651 35.5206C156.622 37.822 156.571 40.1656 155.351 42.1748C154.886 42.9399 154.326 43.9934 153.418 44.2959" stroke="white" stroke-width="5.04516" stroke-linecap="round"/>
<path d="M154.958 27.2073C154.729 26.9006 154.077 25.9587 154.265 26.2921C154.471 26.6583 154.587 27.0563 154.735 27.4468C155.098 28.4021 155.564 29.316 155.881 30.2863C156.291 31.5371 156.651 32.9683 156.651 34.2891" stroke="white" stroke-width="5.04516" stroke-linecap="round"/>
<path d="M155.728 26.5914C157.069 29.6132 158.499 32.9074 158.499 36.2904" stroke="white" stroke-width="5.04516" stroke-linecap="round"/>
<path d="M157.729 33.5193C158.472 36.4739 158.719 38.6514 158.311 41.559C158.242 42.0436 158.207 43.7492 157.729 43.988" stroke="white" stroke-width="5.04516" stroke-linecap="round"/>
<path d="M156.497 43.5262C155.406 45.5699 154.228 47.5583 153.076 49.5646C152.772 50.0929 152.541 50.7307 152.032 51.0699" stroke="white" stroke-width="5.04516" stroke-linecap="round"/>
<path d="M133.192 11.988C132.693 10.7516 132.134 9.74374 132.058 8.46054C132.047 8.27031 131.669 8.35338 131.554 8.15258C131.42 7.91736 131.374 7.82257 131.554 8.13859C132.168 9.21239 133.552 9.9189 133.948 11.1062" stroke="white" stroke-width="5.04516" stroke-linecap="round"/>
<path d="M132.814 8.58667C133.777 10.2928 134.879 12.1562 135.208 14.1299" stroke="white" stroke-width="5.04516" stroke-linecap="round"/>
<path d="M322.043 95.0491C326.403 110.621 330.463 122.692 339.727 134.882C342.534 138.576 347.585 141.49 350.98 144.885C356.713 150.618 358.17 159.035 366.163 161.319C377.204 164.473 386.794 171.765 397.959 175.073C408.007 178.05 420.979 173.822 431.361 173.822C445.997 173.822 460.753 178.086 473.963 172.215C487.294 166.29 497.229 152.578 505.669 142.027C513.467 132.28 527.045 121.834 527.818 107.91C528.082 103.161 532.106 93.799 528.176 89.869C522.99 84.6834 516.459 92.3041 510.938 93.5308C496.713 96.692 480.63 95.0491 465.836 95.0491C449.675 95.0491 434.065 95.9138 418.5 95.0491C404.552 94.2743 391.003 91.8339 376.702 91.8339C370.272 91.8339 363.841 91.8339 357.411 91.8339C351.018 91.8339 345.293 88.6187 338.923 88.6187C334.732 88.6187 324.536 91.5774 322.847 90.2263C318.1 86.4288 331.851 82.1882 334.1 82.1882C340.926 82.1882 347.012 78.973 353.392 78.973C360.626 78.973 367.86 78.973 375.095 78.973C402.127 78.973 427.594 75.7577 454.672 75.7577C465.702 75.7577 482.138 72.8867 491.647 78.1692C496.565 80.9013 502.708 80.6404 507.812 82.0989C509.887 82.6915 523.855 86.5811 519.78 88.6187" stroke="black" stroke-width="5.04516" stroke-linecap="round"/>
</svg>
